<svg width="32" height="32" viewBox="0 0 32 32" fill="none" xmlns="http://www.w3.org/2000/svg">
<g clip-path="url(#clip0_61221_14)">
<path d="M17.499 25C17.3973 25.0006 17.2965 24.9812 17.2024 24.9429C17.1083 24.9046 17.0226 24.8483 16.9504 24.777L11.4878 19.3946C10.6991 18.6149 10.0732 17.6876 9.64604 16.6662C9.21891 15.6448 8.99902 14.5494 8.99902 13.4431C8.99902 12.3368 9.21891 11.2414 9.64604 10.22C10.0732 9.19862 10.6991 8.27138 11.4878 7.49169C13.0887 5.9177 15.2485 5.03503 17.499 5.03503C19.7495 5.03503 21.9093 5.9177 23.5103 7.49169C24.299 8.27138 24.9249 9.19862 25.352 10.22C25.7791 11.2414 25.999 12.3368 25.999 13.4431C25.999 14.5494 25.7791 15.6448 25.352 16.6662C24.9249 17.6876 24.299 18.6149 23.5103 19.3946L18.0476 24.777C17.9754 24.8483 17.8898 24.9046 17.7957 24.9429C17.7015 24.9812 17.6007 25.0006 17.499 25ZM17.499 6.54592C15.6549 6.54141 13.8845 7.26607 12.5772 8.56049C11.9334 9.19722 11.4224 9.95437 11.0737 10.7884C10.7251 11.6224 10.5456 12.5168 10.5456 13.4201C10.5456 14.3234 10.7251 15.2177 11.0737 16.0517C11.4224 16.8857 11.9334 17.6429 12.5772 18.2796L17.499 23.1469L22.4208 18.2796C23.0647 17.6429 23.5756 16.8857 23.9243 16.0517C24.273 15.2177 24.4525 14.3234 24.4525 13.4201C24.4525 12.5168 24.273 11.6224 23.9243 10.7884C23.5756 9.95437 23.0647 9.19722 22.4208 8.56049C21.1136 7.26607 19.3432 6.54141 17.499 6.54592Z" fill="#E85310"/>
<path d="M17.499 17.3108C16.7349 17.3108 15.988 17.0853 15.3527 16.6628C14.7174 16.2404 14.2222 15.64 13.9298 14.9374C13.6374 14.2349 13.5609 13.4619 13.71 12.7161C13.859 11.9704 14.227 11.2853 14.7673 10.7476C15.3076 10.21 15.9959 9.8438 16.7453 9.69546C17.4947 9.54711 18.2715 9.62325 18.9774 9.91424C19.6834 10.2052 20.2867 10.698 20.7112 11.3302C21.1357 11.9625 21.3623 12.7058 21.3623 13.4662C21.3623 14.4858 20.9553 15.4637 20.2308 16.1847C19.5063 16.9057 18.5236 17.3108 17.499 17.3108ZM17.499 11.1594C17.0406 11.1594 16.5924 11.2947 16.2112 11.5482C15.83 11.8017 15.5329 12.1619 15.3575 12.5834C15.1821 13.0049 15.1362 13.4687 15.2256 13.9162C15.315 14.3637 15.5358 14.7747 15.86 15.0973C16.1841 15.4199 16.5972 15.6396 17.0468 15.7286C17.4965 15.8176 17.9625 15.7719 18.3861 15.5973C18.8096 15.4228 19.1716 15.1271 19.4263 14.7477C19.681 14.3684 19.817 13.9224 19.817 13.4662C19.817 12.8544 19.5728 12.2677 19.1381 11.8351C18.7034 11.4025 18.1138 11.1594 17.499 11.1594Z" fill="#E85310"/>
</g>
<defs>
<clipPath id="clip0_61221_14">
<rect width="32" height="32" fill="white"/>
</clipPath>
</defs>
</svg>
