<svg width="32" height="32" viewBox="0 0 32 32" fill="none" xmlns="http://www.w3.org/2000/svg">
<path d="M23 16C23 17.8565 22.2625 19.637 20.9497 20.9497C19.637 22.2625 17.8565 23 16 23C14.1435 23 12.363 22.2625 11.0503 20.9497C9.7375 19.637 9 17.8565 9 16C9 14.1435 9.7375 12.363 11.0503 11.0503C12.363 9.73754 14.1435 9 16 9C17.8565 9 19.637 9.73754 20.9497 11.0503C22.2625 12.363 23 14.1435 23 16Z" fill="#FFD158"/>
<path fill-rule="evenodd" clip-rule="evenodd" d="M15.9922 1.99908C15.9266 2.00011 15.8618 2.01403 15.8015 2.0401C15.7412 2.06617 15.6867 2.10385 15.641 2.151C15.5953 2.19815 15.5593 2.25389 15.5351 2.31494C15.511 2.376 15.499 2.44118 15.5001 2.50684V5.49323C15.4991 5.55948 15.5114 5.62534 15.5361 5.68683C15.5608 5.74831 15.5975 5.80419 15.644 5.85138C15.6905 5.89856 15.7459 5.93604 15.8071 5.96161C15.8682 5.98718 15.9338 6.00043 16.0001 6.00043C16.0663 6.00043 16.1319 5.98718 16.1931 5.96161C16.2542 5.93604 16.3096 5.89856 16.3561 5.85138C16.4027 5.80419 16.4393 5.74831 16.4641 5.68683C16.4888 5.62534 16.501 5.55948 16.5001 5.49323V2.50684C16.5011 2.43986 16.4887 2.37336 16.4635 2.31128C16.4384 2.2492 16.401 2.19281 16.3537 2.14545C16.3063 2.09808 16.2499 2.06073 16.1878 2.03558C16.1257 2.01044 16.0592 1.99804 15.9922 1.99908Z" fill="#FFD158"/>
<path fill-rule="evenodd" clip-rule="evenodd" d="M15.9922 25.9991C15.9266 26.0001 15.8618 26.014 15.8015 26.0401C15.7412 26.0662 15.6867 26.1039 15.641 26.1511C15.5953 26.1982 15.5593 26.2538 15.5351 26.3149C15.511 26.3759 15.499 26.4412 15.5001 26.5069V29.4932C15.4991 29.5595 15.5114 29.6253 15.5361 29.6868C15.5608 29.7483 15.5975 29.8042 15.644 29.8514C15.6905 29.8986 15.7459 29.936 15.8071 29.9616C15.8682 29.9872 15.9338 30.0004 16.0001 30.0004C16.0663 30.0004 16.1319 29.9872 16.1931 29.9616C16.2542 29.936 16.3096 29.8986 16.3561 29.8514C16.4027 29.8042 16.4393 29.7483 16.4641 29.6868C16.4888 29.6253 16.501 29.5595 16.5001 29.4932V26.5069C16.5011 26.4399 16.4887 26.3734 16.4635 26.3113C16.4384 26.2493 16.401 26.1928 16.3537 26.1454C16.3063 26.0981 16.2499 26.0607 16.1878 26.0356C16.1257 26.0104 16.0592 25.998 15.9922 25.9991Z" fill="#FFD158"/>
<path fill-rule="evenodd" clip-rule="evenodd" d="M2.50785 15.4991C2.4416 15.4981 2.37582 15.5104 2.31433 15.5351C2.25285 15.5598 2.19689 15.5965 2.1497 15.643C2.10252 15.6895 2.06505 15.745 2.03948 15.8061C2.0139 15.8672 2.00073 15.9328 2.00073 15.9991C2.00073 16.0653 2.0139 16.1309 2.03948 16.1921C2.06505 16.2532 2.10252 16.3086 2.1497 16.3552C2.19689 16.4017 2.25285 16.4384 2.31433 16.4631C2.37582 16.4878 2.4416 16.5 2.50785 16.4991H5.49223C5.55848 16.5 5.62427 16.4878 5.68575 16.4631C5.74723 16.4384 5.80319 16.4017 5.85038 16.3552C5.89756 16.3086 5.93503 16.2532 5.96061 16.1921C5.98618 16.1309 5.99935 16.0653 5.99935 15.9991C5.99935 15.9328 5.98618 15.8672 5.96061 15.8061C5.93503 15.745 5.89756 15.6895 5.85038 15.643C5.80319 15.5965 5.74723 15.5598 5.68575 15.5351C5.62427 15.5104 5.55848 15.4981 5.49223 15.4991H2.50785Z" fill="#FFD158"/>
<path fill-rule="evenodd" clip-rule="evenodd" d="M26.5079 15.4991C26.4416 15.4981 26.3758 15.5104 26.3143 15.5351C26.2528 15.5598 26.1969 15.5965 26.1497 15.643C26.1025 15.6895 26.0651 15.745 26.0395 15.8061C26.0139 15.8672 26.0007 15.9328 26.0007 15.9991C26.0007 16.0653 26.0139 16.1309 26.0395 16.1921C26.0651 16.2532 26.1025 16.3086 26.1497 16.3552C26.1969 16.4017 26.2528 16.4384 26.3143 16.4631C26.3758 16.4878 26.4416 16.5 26.5079 16.4991H29.4922C29.5585 16.5 29.6243 16.4878 29.6858 16.4631C29.7472 16.4384 29.8032 16.4017 29.8504 16.3552C29.8976 16.3086 29.935 16.2532 29.9606 16.1921C29.9862 16.1309 29.9994 16.0653 29.9994 15.9991C29.9994 15.9328 29.9862 15.8672 29.9606 15.8061C29.935 15.745 29.8976 15.6895 29.8504 15.643C29.8032 15.5965 29.7472 15.5598 29.6858 15.5351C29.6243 15.5104 29.5585 15.4981 29.4922 15.4991H26.5079Z" fill="#FFD158"/>
<path fill-rule="evenodd" clip-rule="evenodd" d="M25.4844 6.00116C25.3547 6.00478 25.2314 6.0587 25.1407 6.15155L23.1524 8.14179C23.1043 8.18784 23.0659 8.24306 23.0395 8.30414C23.013 8.36523 22.999 8.43094 22.9983 8.4975C22.9976 8.56407 23.0102 8.63008 23.0353 8.69172C23.0605 8.75335 23.0977 8.80932 23.1448 8.85639C23.1918 8.90346 23.2478 8.94074 23.3095 8.96589C23.3711 8.99103 23.4371 9.00359 23.5037 9.00287C23.5703 9.00216 23.636 8.9882 23.6971 8.96174C23.7582 8.93528 23.8134 8.89689 23.8594 8.84882L25.8477 6.85859C25.9196 6.78829 25.9686 6.69801 25.9884 6.59943C26.0082 6.50085 25.9978 6.39855 25.9585 6.30597C25.9193 6.2134 25.8531 6.13476 25.7685 6.08039C25.6839 6.02602 25.5849 5.99841 25.4844 6.00116Z" fill="#FFD158"/>
<path fill-rule="evenodd" clip-rule="evenodd" d="M6.49997 5.99902C6.40038 5.99904 6.30306 6.02879 6.22048 6.08447C6.13791 6.14015 6.07384 6.2192 6.03649 6.31152C5.99914 6.40385 5.99022 6.50523 6.01085 6.60266C6.03149 6.70009 6.08075 6.78914 6.15232 6.8584L8.1406 8.84863C8.18665 8.8967 8.24184 8.93509 8.30292 8.96155C8.364 8.98801 8.42975 9.00197 8.49632 9.00269C8.56288 9.0034 8.62892 8.99084 8.69056 8.9657C8.75219 8.94055 8.80819 8.90327 8.85526 8.8562C8.90233 8.80913 8.93953 8.75316 8.96468 8.69153C8.98982 8.62989 9.00241 8.56388 9.0017 8.49731C9.00099 8.43075 8.987 8.36504 8.96054 8.30396C8.93408 8.24287 8.8957 8.18766 8.84763 8.1416L6.85935 6.15137C6.81273 6.10317 6.75689 6.06488 6.69515 6.0387C6.63341 6.01251 6.56703 5.99903 6.49997 5.99902Z" fill="#FFD158"/>
<path fill-rule="evenodd" clip-rule="evenodd" d="M23.5 22.999C23.4004 22.999 23.3031 23.0288 23.2205 23.0845C23.1379 23.1402 23.0738 23.2192 23.0365 23.3115C22.9991 23.4038 22.9902 23.5052 23.0109 23.6027C23.0315 23.7001 23.0807 23.7891 23.1523 23.8584L25.1406 25.8486C25.1867 25.8967 25.2418 25.9351 25.3029 25.9615C25.364 25.988 25.4298 26.002 25.4963 26.0027C25.5629 26.0034 25.6289 25.9908 25.6906 25.9657C25.7522 25.9406 25.8082 25.9033 25.8553 25.8562C25.9023 25.8091 25.9395 25.7532 25.9647 25.6915C25.9898 25.6299 26.0024 25.5639 26.0017 25.4973C26.001 25.4308 25.987 25.365 25.9605 25.304C25.9341 25.2429 25.8957 25.1877 25.8476 25.1416L23.8593 23.1514C23.8127 23.1032 23.7569 23.0649 23.6951 23.0387C23.6334 23.0125 23.567 22.999 23.5 22.999Z" fill="#FFD158"/>
<path fill-rule="evenodd" clip-rule="evenodd" d="M8.48442 23.0012C8.35466 23.0048 8.23139 23.0587 8.14067 23.1516L6.15239 25.1418C6.10432 25.1878 6.06594 25.2431 6.03948 25.3041C6.01302 25.3652 5.99903 25.4309 5.99832 25.4975C5.99761 25.5641 6.0102 25.6301 6.03534 25.6917C6.06049 25.7534 6.09769 25.8093 6.14476 25.8564C6.19183 25.9035 6.24783 25.9407 6.30946 25.9659C6.3711 25.991 6.43714 26.0036 6.5037 26.0029C6.57027 26.0022 6.63602 25.9882 6.6971 25.9617C6.75818 25.9353 6.81337 25.8969 6.85942 25.8488L8.8477 23.8586C8.91959 23.7883 8.96862 23.698 8.9884 23.5994C9.00817 23.5008 8.99776 23.3986 8.95853 23.306C8.91931 23.2134 8.85309 23.1348 8.76851 23.0804C8.68393 23.026 8.58493 22.9984 8.48442 23.0012Z" fill="#FFD158"/>
<path d="M13.4804 17.5004C13.3892 17.5037 13.3007 17.5318 13.2243 17.5818C13.148 17.6318 13.0868 17.7017 13.0474 17.784C13.008 17.8663 12.9918 17.9578 13.0006 18.0486C13.0095 18.1394 13.043 18.2261 13.0976 18.2992C13.225 18.4761 13.37 18.6401 13.5292 18.7895C14.1665 19.3869 15.042 19.7504 15.9999 19.7504C16.9578 19.7504 17.8334 19.3869 18.4706 18.7895C18.6299 18.6401 18.7749 18.4761 18.9023 18.2992C18.9407 18.2459 18.9683 18.1854 18.9835 18.1214C18.9986 18.0574 19.001 17.991 18.9905 17.9261C18.9799 17.8611 18.9567 17.7989 18.9222 17.743C18.8876 17.687 18.8423 17.6385 18.789 17.6C18.7356 17.5615 18.6752 17.534 18.6112 17.5188C18.5472 17.5037 18.4808 17.5012 18.4159 17.5118C18.351 17.5223 18.2888 17.5455 18.2328 17.5801C18.1768 17.6147 18.1282 17.6599 18.0898 17.7133C18.0008 17.8368 17.9001 17.9529 17.787 18.059C17.335 18.4828 16.7044 18.7504 15.9999 18.7504C15.2954 18.7504 14.6649 18.4828 14.2128 18.059C14.0997 17.9529 13.9991 17.8368 13.9101 17.7133C13.862 17.6446 13.7975 17.5891 13.7224 17.5519C13.6473 17.5147 13.5641 17.497 13.4804 17.5004Z" fill="#CC8634"/>
<path d="M13.7501 12.25C13.3096 12.25 12.9067 12.4408 12.6231 12.7383C12.4817 12.8869 12.3676 13.0615 12.2892 13.2559C12.2645 13.3168 12.2521 13.3819 12.2527 13.4476C12.2533 13.5133 12.2668 13.5783 12.2924 13.6388C12.3181 13.6993 12.3554 13.7541 12.4023 13.8002C12.4491 13.8462 12.5046 13.8826 12.5655 13.9072C12.6264 13.9319 12.6916 13.9443 12.7573 13.9437C12.823 13.9432 12.888 13.9297 12.9484 13.9041C13.0089 13.8784 13.0638 13.841 13.1098 13.7942C13.1559 13.7473 13.1923 13.6918 13.2169 13.6309C13.248 13.5539 13.2934 13.4849 13.3478 13.4277C13.4556 13.3152 13.5935 13.25 13.7501 13.25C13.9073 13.25 14.0444 13.314 14.1524 13.4277C14.2071 13.4857 14.2522 13.5537 14.2833 13.6309C14.3079 13.6918 14.3443 13.7473 14.3904 13.7942C14.4364 13.841 14.4913 13.8784 14.5517 13.9041C14.6122 13.9297 14.6772 13.9432 14.7429 13.9437C14.8086 13.9443 14.8738 13.9319 14.9347 13.9072C14.9956 13.8826 15.0511 13.8462 15.0979 13.8002C15.1448 13.7541 15.1821 13.6993 15.2078 13.6388C15.2334 13.5783 15.2469 13.5133 15.2475 13.4476C15.248 13.3819 15.2357 13.3168 15.211 13.2559C15.1326 13.0614 15.0182 12.8868 14.877 12.7383C14.5935 12.4408 14.1906 12.25 13.7501 12.25Z" fill="#CC8634"/>
<path d="M18.2501 12.25C17.8096 12.25 17.4067 12.4408 17.1231 12.7383C16.9817 12.8869 16.8676 13.0615 16.7892 13.2559C16.7645 13.3168 16.7521 13.3819 16.7527 13.4476C16.7533 13.5133 16.7668 13.5783 16.7924 13.6388C16.8181 13.6993 16.8554 13.7541 16.9023 13.8002C16.9491 13.8462 17.0046 13.8826 17.0655 13.9072C17.1264 13.9319 17.1916 13.9443 17.2573 13.9437C17.323 13.9432 17.388 13.9297 17.4484 13.9041C17.5089 13.8784 17.5638 13.841 17.6098 13.7942C17.6559 13.7473 17.6923 13.6918 17.7169 13.6309C17.748 13.5539 17.7934 13.4849 17.8478 13.4277C17.9556 13.3152 18.0935 13.25 18.2501 13.25C18.4073 13.25 18.5444 13.314 18.6524 13.4277C18.7071 13.4857 18.7522 13.5537 18.7833 13.6309C18.8079 13.6918 18.8443 13.7473 18.8904 13.7942C18.9364 13.841 18.9913 13.8784 19.0517 13.9041C19.1122 13.9297 19.1772 13.9432 19.2429 13.9437C19.3086 13.9443 19.3738 13.9319 19.4347 13.9072C19.4956 13.8826 19.5511 13.8462 19.5979 13.8002C19.6448 13.7541 19.6821 13.6993 19.7078 13.6388C19.7334 13.5783 19.7469 13.5133 19.7475 13.4476C19.748 13.3819 19.7357 13.3168 19.711 13.2559C19.6326 13.0614 19.5182 12.8868 19.377 12.7383C19.0935 12.4408 18.6906 12.25 18.2501 12.25Z" fill="#CC8634"/>
</svg>
