<svg width="32" height="32" viewBox="0 0 32 32" fill="none" xmlns="http://www.w3.org/2000/svg">
<path d="M22.2941 8.902L21.1961 13L25.2941 14.098V17.902L21.1961 19L22.2941 23.098L19.0001 25L16.0001 22L13.0001 25L9.70606 23.098L10.8041 19L6.70605 17.902V14.098L10.8041 13L9.70606 8.902L13.0001 7L16.0001 10L19.0001 7L22.2941 8.902Z" fill="#A9E5FF"/>
<path d="M11 5C11.5523 5 12 4.55228 12 4C12 3.44772 11.5523 3 11 3C10.4477 3 10 3.44772 10 4C10 4.55228 10.4477 5 11 5Z" fill="#158FCC"/>
<path d="M21 5C21.5523 5 22 4.55228 22 4C22 3.44772 21.5523 3 21 3C20.4477 3 20 3.44772 20 4C20 4.55228 20.4477 5 21 5Z" fill="#158FCC"/>
<path d="M3.97424 14.8293C4.25038 14.351 4.08651 13.7394 3.60821 13.4633C3.12992 13.1871 2.51833 13.351 2.24219 13.8293C1.96605 14.3076 2.12992 14.9192 2.60821 15.1953C3.08651 15.4715 3.6981 15.3076 3.97424 14.8293Z" fill="#158FCC"/>
<path d="M8.97448 6.16913C9.25062 5.69084 9.08675 5.07925 8.60846 4.80311C8.13016 4.52696 7.51857 4.69084 7.24243 5.16913C6.96629 5.64742 7.13016 6.25901 7.60846 6.53516C8.08675 6.8113 8.69834 6.64742 8.97448 6.16913Z" fill="#158FCC"/>
<path d="M8.60772 27.1959C9.08602 26.9198 9.24989 26.3082 8.97375 25.8299C8.69761 25.3516 8.08602 25.1877 7.60772 25.4639C7.12943 25.74 6.96556 26.3516 7.2417 26.8299C7.51784 27.3082 8.12943 27.4721 8.60772 27.1959Z" fill="#158FCC"/>
<path d="M3.60772 18.5358C4.08602 18.2596 4.24989 17.648 3.97375 17.1697C3.69761 16.6914 3.08602 16.5276 2.60772 16.8037C2.12943 17.0799 1.96556 17.6914 2.2417 18.1697C2.51784 18.648 3.12943 18.8119 3.60772 18.5358Z" fill="#158FCC"/>
<path d="M21 29C21.5523 29 22 28.5523 22 28C22 27.4477 21.5523 27 21 27C20.4477 27 20 27.4477 20 28C20 28.5523 20.4477 29 21 29Z" fill="#158FCC"/>
<path d="M11 29C11.5523 29 12 28.5523 12 28C12 27.4477 11.5523 27 11 27C10.4477 27 10 27.4477 10 28C10 28.5523 10.4477 29 11 29Z" fill="#158FCC"/>
<path d="M27.9999 19.8004L25.6689 20.4254L23.7879 19.3394L25.5539 18.8664C25.6808 18.8324 25.7997 18.7737 25.9039 18.6938C26.0081 18.6138 26.0955 18.5141 26.1611 18.4003C26.2268 18.2866 26.2694 18.161 26.2865 18.0308C26.3036 17.9006 26.2949 17.7683 26.2609 17.6414C26.2269 17.5146 26.1683 17.3956 26.0883 17.2914C26.0083 17.1873 25.9086 17.0999 25.7949 17.0342C25.6811 16.9686 25.5555 16.9259 25.4253 16.9088C25.2951 16.8917 25.1628 16.9004 25.0359 16.9344L21.3359 17.9254L17.9999 16.0004L21.3379 14.0734L25.0379 15.0644C25.2941 15.1331 25.5671 15.0972 25.7969 14.9646C26.0266 14.832 26.1942 14.6136 26.2629 14.3574C26.3316 14.1012 26.2957 13.8282 26.1631 13.5985C26.0306 13.3688 25.8121 13.2011 25.5559 13.1324L23.7899 12.6594L25.6709 11.5734L27.9999 12.2004C28.1268 12.2344 28.2591 12.2431 28.3893 12.226C28.5195 12.2089 28.6451 12.1663 28.7589 12.1006C28.8726 12.035 28.9723 11.9475 29.0523 11.8434C29.1323 11.7392 29.1909 11.6203 29.2249 11.4934C29.2589 11.3666 29.2676 11.2342 29.2505 11.104C29.2334 10.9738 29.1908 10.8482 29.1251 10.7345C29.0595 10.6207 28.9721 10.521 28.8679 10.4411C28.7637 10.3611 28.6448 10.3024 28.5179 10.2684L26.7519 9.79541L27.2249 8.02941C27.2589 7.90255 27.2676 7.77024 27.2505 7.64002C27.2334 7.5098 27.1908 7.38423 27.1251 7.27048C27.0595 7.15673 26.9721 7.05702 26.8679 6.97705C26.7637 6.89709 26.6448 6.83842 26.5179 6.80441C26.3911 6.77039 26.2588 6.7617 26.1285 6.77882C25.9983 6.79595 25.8728 6.83855 25.759 6.9042C25.6453 6.96985 25.5455 7.05727 25.4656 7.16145C25.3856 7.26563 25.3269 7.38455 25.2929 7.51141L24.6679 9.84141L22.7869 10.9274L23.2599 9.16141C23.3286 8.90521 23.2927 8.63222 23.1601 8.40248C23.0276 8.17275 22.8091 8.0051 22.5529 7.93641C22.2967 7.86772 22.0237 7.90361 21.794 8.0362C21.5643 8.16879 21.3966 8.38721 21.3279 8.64341L20.3369 12.3434L16.9999 14.2684V10.4144L19.7069 7.70741C19.8891 7.5188 19.9899 7.2662 19.9876 7.00401C19.9853 6.74181 19.8802 6.491 19.6948 6.30559C19.5093 6.12018 19.2585 6.01501 18.9963 6.01273C18.7341 6.01045 18.4815 6.11125 18.2929 6.29341L16.9999 7.58641V5.41441L18.7069 3.70741C18.8891 3.5188 18.9899 3.2662 18.9876 3.00401C18.9853 2.74181 18.8802 2.491 18.6948 2.30559C18.5093 2.12018 18.2585 2.01501 17.9963 2.01273C17.7341 2.01045 17.4815 2.11125 17.2929 2.29341L15.9999 3.58641L14.7069 2.29341C14.5183 2.11125 14.2657 2.01045 14.0035 2.01273C13.7413 2.01501 13.4905 2.12018 13.3051 2.30559C13.1197 2.491 13.0145 2.74181 13.0123 3.00401C13.01 3.2662 13.1108 3.5188 13.2929 3.70741L14.9999 5.41441V7.58641L13.7069 6.29341C13.5183 6.11125 13.2657 6.01045 13.0035 6.01273C12.7413 6.01501 12.4905 6.12018 12.3051 6.30559C12.1197 6.491 12.0145 6.74181 12.0123 7.00401C12.01 7.2662 12.1108 7.5188 12.2929 7.70741L14.9999 10.4144V14.2684L11.6619 12.3414L10.6709 8.64141C10.6022 8.38521 10.4346 8.16679 10.2049 8.0342C9.97513 7.90161 9.70213 7.86572 9.44593 7.93441C9.18973 8.0031 8.97132 8.17075 8.83873 8.40048C8.70614 8.63022 8.67024 8.90321 8.73893 9.15941L9.21193 10.9254L7.33193 9.84141L6.70793 7.50941C6.67392 7.38255 6.61526 7.26363 6.53529 7.15945C6.45532 7.05527 6.35561 6.96785 6.24186 6.9022C6.12811 6.83655 6.00254 6.79395 5.87232 6.77682C5.7421 6.7597 5.60979 6.76839 5.48293 6.80241C5.35608 6.83642 5.23716 6.89509 5.13298 6.97505C5.02879 7.05502 4.94138 7.15473 4.87573 7.26848C4.81008 7.38223 4.76747 7.5078 4.75035 7.63802C4.73323 7.76824 4.74192 7.90055 4.77593 8.02741L5.24893 9.79341L3.48293 10.2664C3.35595 10.3004 3.23689 10.359 3.13256 10.4389C3.02822 10.5189 2.94066 10.6186 2.87487 10.7324C2.80908 10.8462 2.76635 10.9719 2.74912 11.1022C2.73188 11.2325 2.74049 11.3649 2.77443 11.4919C2.80838 11.6189 2.86701 11.738 2.94697 11.8423C3.02692 11.9466 3.12665 12.0342 3.24045 12.1C3.35425 12.1658 3.47989 12.2085 3.6102 12.2257C3.74051 12.243 3.87295 12.2344 3.99993 12.2004L6.33093 11.5754L8.21193 12.6614L6.44593 13.1344C6.31908 13.1684 6.20016 13.2271 6.09598 13.3071C5.99179 13.387 5.90438 13.4867 5.83873 13.6005C5.77308 13.7142 5.73047 13.8398 5.71335 13.97C5.69623 14.1002 5.70492 14.2326 5.73893 14.3594C5.77295 14.4863 5.83161 14.6052 5.91158 14.7094C5.99155 14.8135 6.09126 14.901 6.20501 14.9666C6.31876 15.0323 6.44433 15.0749 6.57455 15.092C6.70476 15.1091 6.83708 15.1004 6.96393 15.0664L10.6639 14.0754L13.9999 16.0004L10.6619 17.9274L6.96193 16.9364C6.83508 16.9024 6.70276 16.8937 6.57255 16.9108C6.44233 16.9279 6.31676 16.9705 6.20301 17.0362C6.08926 17.1019 5.98955 17.1893 5.90958 17.2935C5.82961 17.3976 5.77095 17.5165 5.73693 17.6434C5.70292 17.7703 5.69423 17.9026 5.71135 18.0328C5.72847 18.163 5.77108 18.2886 5.83673 18.4023C5.90238 18.5161 5.98979 18.6158 6.09398 18.6958C6.19816 18.7757 6.31708 18.8344 6.44393 18.8684L8.20993 19.3414L6.33193 20.4274L3.99993 19.8004C3.74373 19.7317 3.47074 19.7676 3.24101 19.9002C3.01128 20.0328 2.84362 20.2512 2.77493 20.5074C2.70624 20.7636 2.74214 21.0366 2.87473 21.2663C3.00732 21.4961 3.22573 21.6637 3.48193 21.7324L5.24793 22.2054L4.77593 23.9734C4.74192 24.1003 4.73323 24.2326 4.75035 24.3628C4.76747 24.493 4.81008 24.6186 4.87573 24.7323C4.94138 24.8461 5.02879 24.9458 5.13298 25.0258C5.23716 25.1057 5.35608 25.1644 5.48293 25.1984C5.60979 25.2324 5.7421 25.2411 5.87232 25.224C6.00254 25.2069 6.12811 25.1643 6.24186 25.0986C6.35561 25.033 6.45532 24.9455 6.53529 24.8414C6.61526 24.7372 6.67392 24.6183 6.70793 24.4914L7.33293 22.1594L9.21393 21.0734L8.73993 22.8394C8.70592 22.9663 8.69723 23.0986 8.71435 23.2288C8.73147 23.359 8.77408 23.4846 8.83973 23.5983C8.90538 23.7121 8.99279 23.8118 9.09698 23.8918C9.20116 23.9717 9.32008 24.0304 9.44693 24.0644C9.57379 24.0984 9.7061 24.1071 9.83632 24.09C9.96654 24.0729 10.0921 24.0303 10.2059 23.9646C10.3196 23.899 10.4193 23.8115 10.4993 23.7074C10.5793 23.6032 10.6379 23.4843 10.6719 23.3574L11.6629 19.6574L14.9999 17.7324V21.5864L12.2929 24.2934C12.1108 24.482 12.01 24.7346 12.0123 24.9968C12.0145 25.259 12.1197 25.5098 12.3051 25.6952C12.4905 25.8806 12.7413 25.9858 13.0035 25.9881C13.2657 25.9904 13.5183 25.8896 13.7069 25.7074L14.9999 24.4144V26.5864L13.2929 28.2934C13.1108 28.482 13.01 28.7346 13.0123 28.9968C13.0145 29.259 13.1197 29.5098 13.3051 29.6952C13.4905 29.8806 13.7413 29.9858 14.0035 29.9881C14.2657 29.9904 14.5183 29.8896 14.7069 29.7074L15.9999 28.4144L17.2929 29.7074C17.4815 29.8896 17.7341 29.9904 17.9963 29.9881C18.2585 29.9858 18.5093 29.8806 18.6948 29.6952C18.8802 29.5098 18.9853 29.259 18.9876 28.9968C18.9899 28.7346 18.8891 28.482 18.7069 28.2934L16.9999 26.5864V24.4144L18.2929 25.7074C18.4815 25.8896 18.7341 25.9904 18.9963 25.9881C19.2585 25.9858 19.5093 25.8806 19.6948 25.6952C19.8802 25.5098 19.9853 25.259 19.9876 24.9968C19.9899 24.7346 19.8891 24.482 19.7069 24.2934L16.9999 21.5864V17.7324L20.3379 19.6594L21.3289 23.3594C21.3976 23.6156 21.5653 23.834 21.795 23.9666C22.0247 24.0992 22.2977 24.1351 22.5539 24.0664C22.8101 23.9977 23.0286 23.8301 23.1611 23.6003C23.2937 23.3706 23.3296 23.0976 23.2609 22.8414L22.7879 21.0754L24.6689 22.1614L25.2939 24.4934C25.3279 24.6203 25.3866 24.7392 25.4666 24.8434C25.5466 24.9475 25.6463 25.035 25.76 25.1006C25.8738 25.1663 25.9993 25.2089 26.1295 25.226C26.2598 25.2431 26.3921 25.2344 26.5189 25.2004C26.6458 25.1664 26.7647 25.1077 26.8689 25.0278C26.9731 24.9478 27.0605 24.8481 27.1261 24.7343C27.1918 24.6206 27.2344 24.495 27.2515 24.3648C27.2686 24.2346 27.2599 24.1023 27.2259 23.9754L26.7529 22.2094L28.5189 21.7364C28.6461 21.7023 28.7652 21.6435 28.8696 21.5634C28.974 21.4833 29.0616 21.3834 29.1274 21.2694C29.1932 21.1554 29.2359 21.0296 29.2531 20.8991C29.2702 20.7686 29.2615 20.636 29.2274 20.5089C29.1934 20.3818 29.1346 20.2626 29.0544 20.1582C28.9743 20.0538 28.8744 19.9662 28.7604 19.9004C28.6464 19.8346 28.5206 19.7919 28.3901 19.7748C28.2596 19.7576 28.1271 19.7663 27.9999 19.8004Z" fill="#158FCC"/>
<path d="M29.7587 18.1701C30.0348 17.6918 29.8709 17.0802 29.3926 16.8041C28.9143 16.5279 28.3028 16.6918 28.0266 17.1701C27.7505 17.6484 27.9143 18.26 28.3926 18.5361C28.8709 18.8123 29.4825 18.6484 29.7587 18.1701Z" fill="#158FCC"/>
<path d="M24.7584 26.8303C25.0346 26.352 24.8707 25.7404 24.3924 25.4642C23.9141 25.1881 23.3025 25.352 23.0264 25.8303C22.7502 26.3086 22.9141 26.9201 23.3924 27.1963C23.8707 27.4724 24.4823 27.3086 24.7584 26.8303Z" fill="#158FCC"/>
<path d="M24.3921 6.53674C24.8704 6.2606 25.0343 5.64901 24.7582 5.17071C24.482 4.69242 23.8704 4.52855 23.3921 4.80469C22.9139 5.08083 22.75 5.69242 23.0261 6.17071C23.3023 6.64901 23.9139 6.81288 24.3921 6.53674Z" fill="#158FCC"/>
<path d="M29.3921 15.1959C29.8704 14.9198 30.0343 14.3082 29.7582 13.8299C29.482 13.3516 28.8704 13.1877 28.3921 13.4639C27.9139 13.74 27.75 14.3516 28.0261 14.8299C28.3023 15.3082 28.9139 15.4721 29.3921 15.1959Z" fill="#158FCC"/>
</svg>
